<?xml version="1.0" encoding="utf-8"?>
<!-- Generator: Adobe Illustrator 24.0.0, SVG Export Plug-In . SVG Version: 6.00 Build 0)  -->
<svg version="1.1" id="图层_1" xmlns="http://www.w3.org/2000/svg" xmlns:xlink="http://www.w3.org/1999/xlink" x="0px" y="0px"
	 viewBox="0 0 200 200" style="enable-background:new 0 0 200 200;" xml:space="preserve">
<style type="text/css">
	.st0{fill:none;stroke:#1890FF;stroke-width:4;stroke-miterlimit:10;}
	.st1{fill:#1890FF;}
</style>
<g>
	<path class="st0" d="M131.4,83.7V56.6l-21.1-21.1H40.4c-2.7,0-4.9,2.2-4.9,4.9v119.1c0,2.7,2.2,4.9,4.9,4.9h86.1
		c2.7,0,4.9-2.2,4.9-4.9v-21.9"/>
	<path class="st0" d="M131.4,56.7h-17.5c-2.5,0-4.5-2-4.5-4.5V35.5"/>
	<line class="st0" x1="47" y1="91.3" x2="95.1" y2="91.3"/>
	<line class="st0" x1="47" y1="112" x2="84.5" y2="112"/>
	<line class="st0" x1="47" y1="132.7" x2="95.1" y2="132.7"/>
	<path class="st0" d="M95.1,118v13.7c0,2.7,2.2,4.9,4.9,4.9h59.5c2.7,0,4.9-2.2,4.9-4.9V90.3c0-2.7-2.2-4.9-4.9-4.9H100
		c-2.7,0-4.9,2.2-4.9,4.9v11.6H81.3c-1.1,0-1.9,1.1-1.5,2.1C81,107.8,84.8,115.4,95.1,118z"/>
	<g>
		<path class="st1" d="M135.3,104.2c0-2.4-1.4-4.2-4.5-4.2c-2.1,0-4,1-5.8,3l-2-1.8c2.2-2.3,4.6-3.9,8.2-3.9c4.5,0,7.4,2.6,7.4,6.6
			c0,5.5-7.6,6.7-6.7,12.2h-3C127.8,110,135.3,108.3,135.3,104.2z M128.8,120.9c0.6-0.9,1.9-1.1,2.9-0.3c1,0.9,1.1,1.9,0.4,2.8
			c-0.6,0.9-2,1.1-2.9,0.3C128.2,122.9,128.2,121.8,128.8,120.9z"/>
	</g>
	<path class="st1" d="M51.2,66.9c-2.9-0.4-4.9-3-4.9-6.9c0-4.3,2.4-6.9,5.7-6.9s5.7,2.6,5.7,6.9c0,3.9-1.9,6.4-4.7,6.9
		c0.6,1.2,1.8,1.8,3.3,1.8c0.6,0,1.1-0.1,1.4-0.2l0.3,1.3c-0.4,0.1-1.1,0.3-1.9,0.3C53.6,70.1,51.9,68.8,51.2,66.9z M56,60
		c0-3.4-1.6-5.4-4-5.4s-4,2.1-4,5.4c0,3.4,1.6,5.6,4,5.6S56,63.4,56,60z"/>
	<path class="st1" d="M65.9,52.3h1.2L61.7,70h-1.2L65.9,52.3z"/>
	<path class="st1" d="M73.1,53.4h2.2l5.4,15.9h-2.1l-1.5-4.9h-5.8l-1.5,4.9h-2L73.1,53.4z M71.8,62.8h4.8l-0.8-2.4
		c-0.6-1.8-1.1-3.5-1.6-5.4h-0.1c-0.5,1.9-1,3.6-1.6,5.4L71.8,62.8z"/>
</g>
</svg>
