<?xml version="1.0" encoding="utf-8"?>
<!-- Generator: Adobe Illustrator 24.0.0, SVG Export Plug-In . SVG Version: 6.00 Build 0)  -->
<svg version="1.1" id="图层_1" xmlns="http://www.w3.org/2000/svg" xmlns:xlink="http://www.w3.org/1999/xlink" x="0px" y="0px"
	 viewBox="0 0 200 200" style="enable-background:new 0 0 200 200;" xml:space="preserve">
<style type="text/css">
	.st0{fill:none;stroke:#1890FF;stroke-width:4;stroke-miterlimit:10;}
</style>
<g>
	<path class="st0" d="M131.9,126.8c2.7-4.8,1.2-8.4-3.6-12c-5.7-4.3-11.2-7.2-15.2-2.6c0,0-4.2,5-16.7-6.8
		C81.9,91.6,88,86.7,88,86.7c5-5.1,1.8-8.9-2.4-14.6c-4.2-5.7-8.5-7.5-14.6-2.6C59.1,79,75.7,101.3,84.2,110l0,0
		c0,0,12.8,13.3,20.9,17.7l4.3,2.4c6.2,3.2,13.1,4.6,18,1.7C127.4,131.7,129.7,130.5,131.9,126.8z"/>
	<circle class="st0" cx="100" cy="100" r="65.9"/>
</g>
</svg>
