<svg xmlns="http://www.w3.org/2000/svg" width="30.42" height="31.142" viewBox="0 0 30.42 31.142">
  <defs>
    <style>
      .cls-1 {
        fill: #1890ff;
      }

      .cls-2 {
        fill: #1c1c1c;
      }
    </style>
  </defs>
  <g id="百工LOGO2" transform="translate(0 0)">
    <path id="路径_642" data-name="路径 642" class="cls-1" d="M24.873,121.118H18.39V119.93h5.381Z" transform="translate(-14.46 -94.303)"/>
    <path id="路径_643" data-name="路径 643" class="cls-2" d="M27.843,85.41H.727L0,84.22H27.116Z" transform="translate(0 -66.224)"/>
    <rect id="矩形_60" data-name="矩形 60" class="cls-2" width="3.872" height="1.188" transform="translate(7.095 21.884) rotate(-64.74)"/>
    <path id="路径_644" data-name="路径 644" class="cls-2" d="M484.859,632.156h-11.1V622.38h11.1Zm-9.909-1.188h8.718v-7.387H474.95Z" transform="translate(-470.459 -601.016)"/>
    <rect id="矩形_61" data-name="矩形 61" class="cls-2" width="1.188" height="11.956" transform="translate(20.708 18.558)"/>
    <path id="路径_645" data-name="路径 645" class="cls-2" d="M76.97,141.368H59.2V140.18H76.243Z" transform="translate(-46.55 -110.226)"/>
    <path id="路径_646" data-name="路径 646" class="cls-1" d="M495.874,539.24h-1.188V526.261l-3.833-2.549-7.718,2.6v3.263l2.921-.9v8.928h-4.1v-6.43l-5.477,1.68v6.378H475.29v-7.265l6.665-2.043v-4.468l9.071-3.064,4.849,3.224Zm-12.74-2.823h1.731v-6.131l-1.731.532Z" transform="translate(-471.662 -522.4)"/>
    <rect id="矩形_62" data-name="矩形 62" class="cls-1" width="1.188" height="16.199" transform="translate(18.685 0.656)"/>
  </g>
</svg>
