<?xml version="1.0" encoding="utf-8"?>
<!-- Generator: Adobe Illustrator 24.0.0, SVG Export Plug-In . SVG Version: 6.00 Build 0)  -->
<svg version="1.1" id="图层_1" xmlns="http://www.w3.org/2000/svg" xmlns:xlink="http://www.w3.org/1999/xlink" x="0px" y="0px"
	 viewBox="0 0 200 200" style="enable-background:new 0 0 200 200;" xml:space="preserve">
<style type="text/css">
	.st0{fill:none;stroke:#1890FF;stroke-width:4;stroke-miterlimit:10;}
	.st1{fill:#1890FF;}
</style>
<g>
	<path class="st0" d="M45,62.5V44.4c0-2.2,1.8-4,4-4h119.4c2.2,0,4,1.8,4,4v82.7c0,2.2-1.8,4-4,4H49c-2.2,0-4-1.8-4-4V120"/>
	<line class="st0" x1="172.3" y1="112.7" x2="72.2" y2="112.7"/>
	<line class="st0" x1="80.5" y1="152.9" x2="136.8" y2="152.9"/>
	<path class="st0" d="M68.2,120h-36c-2.2,0-4-1.8-4-4V67.1c0-2.2,1.8-4,4-4h36c2.2,0,4,1.8,4,4V116C72.2,118.2,70.4,120,68.2,120z"
		/>
	<rect x="99.8" y="131.2" class="st0" width="17.8" height="21.8"/>
	<g>
		<rect x="36.8" y="79.1" class="st1" width="4" height="4"/>
		<rect x="45.8" y="79.1" class="st1" width="17.3" height="4"/>
	</g>
	<g>
		<rect x="36.8" y="89.5" class="st1" width="4" height="4"/>
		<rect x="45.8" y="89.5" class="st1" width="17.3" height="4"/>
	</g>
	<g>
		<rect x="36.8" y="100" class="st1" width="4" height="4"/>
		<rect x="45.8" y="100" class="st1" width="17.3" height="4"/>
	</g>
	<g>
		<circle class="st0" cx="109.7" cy="76" r="13.1"/>
		<line class="st0" x1="118.9" y1="85.3" x2="129.6" y2="95.9"/>
	</g>
</g>
</svg>
