<?xml version="1.0" encoding="utf-8"?>
<!-- Generator: Adobe Illustrator 16.0.0, SVG Export Plug-In . SVG Version: 6.00 Build 0)  -->
<!DOCTYPE svg PUBLIC "-//W3C//DTD SVG 1.1//EN" "http://www.w3.org/Graphics/SVG/1.1/DTD/svg11.dtd">
<svg version="1.1" id="图层_1" xmlns="http://www.w3.org/2000/svg" xmlns:xlink="http://www.w3.org/1999/xlink" x="0px" y="0px"
	 width="356px" height="150px" viewBox="0 0 356 150" enable-background="new 0 0 356 150" xml:space="preserve">
<g>
	<path fill="#999999" d="M87.778,35.587H348.17V7.237H7.83v28.35h45.95c1.566,0,2.835,1.269,2.835,2.835v73.163
		c-0.002,1.563-1.271,2.83-2.834,2.83H7.83v28.348h340.34v-28.348H87.779c-1.566,0-2.835-1.27-2.835-2.835l0-73.158
		C84.943,36.856,86.212,35.587,87.778,35.587z"/>
	<path fill="#ABABAB" d="M7.83,142.196v-27.215h45.951c1.875,0,3.398-1.521,3.401-3.396V38.422c0-1.878-1.524-3.402-3.402-3.402
		H7.83V7.804h340.34V35.02H87.778c-1.878,0-3.402,1.524-3.402,3.402l0.001,73.158c0,1.877,1.523,3.401,3.402,3.401H348.17v27.215
		H7.83z"/>
	<path fill="#BCBCBC" d="M7.83,141.63v-26.081h45.951c2.186,0,3.965-1.776,3.968-3.962V38.422c0-2.19-1.778-3.969-3.969-3.969H7.83
		V8.37h340.34v26.083H87.778c-2.19,0-3.969,1.778-3.969,3.969v73.158c0,2.189,1.779,3.969,3.969,3.969H348.17v26.081H7.83z"/>
	<path fill="#CECECE" d="M7.83,141.063v-24.947h45.951c2.498,0,4.531-2.029,4.535-4.527V38.422c0-2.502-2.034-4.536-4.536-4.536
		H7.83V8.938h340.34v24.949H87.778c-2.502,0-4.536,2.034-4.536,4.536l0,73.158c0,2.502,2.034,4.535,4.536,4.535H348.17v24.947H7.83z
		"/>
	<path fill="#DFDFDF" d="M7.83,140.495v-23.813h45.951c2.809,0,5.098-2.285,5.102-5.094V38.422c0-2.814-2.288-5.103-5.103-5.103
		H7.83V9.505h340.34v23.814H87.778c-2.814,0-5.103,2.288-5.103,5.103l0,73.158c0,2.814,2.289,5.103,5.103,5.103H348.17v23.813H7.83z
		"/>
	<path fill="#F1F1F1" d="M7.83,139.929V117.25h45.951c3.121,0,5.664-2.539,5.669-5.66V38.422c0-3.126-2.543-5.669-5.669-5.669H7.83
		V10.071h340.34v22.681H87.778c-3.126,0-5.669,2.543-5.669,5.669l0,73.158c0,3.127,2.543,5.67,5.669,5.67H348.17v22.679H7.83z"/>
</g>
</svg>
