<?xml version="1.0" encoding="utf-8"?>
<!-- Generator: Adobe Illustrator 16.0.0, SVG Export Plug-In . SVG Version: 6.00 Build 0)  -->
<!DOCTYPE svg PUBLIC "-//W3C//DTD SVG 1.1//EN" "http://www.w3.org/Graphics/SVG/1.1/DTD/svg11.dtd">
<svg version="1.1" id="图层_1" xmlns="http://www.w3.org/2000/svg" xmlns:xlink="http://www.w3.org/1999/xlink" x="0px" y="0px"
	 width="1247px" height="346px" viewBox="-445.5 -76.5 1247 346" enable-background="new -445.5 -76.5 1247 346"
	 xml:space="preserve">
<g>
	<path fill="#999999" d="M-159.042,147.845c0,6.757,5.48,12.241,12.245,12.241h937.41v-2.035h-937.41
		c-5.635,0-10.206-4.574-10.206-10.206V-64.843h-2.043L-159.042,147.845z"/>
	<path fill="#999999" d="M-256.945,147.862V-64.843h-2.039v212.706c-0.011,5.629-4.577,10.188-10.206,10.188h-165.42v2.035h165.42
		C-262.44,160.086-256.956,154.612-256.945,147.862z"/>
	<rect x="-434.611" y="258.06" fill="#999999" width="1225.223" height="2.046"/>
	<path fill="#ABABAB" d="M-159.042,147.845l-0.004-212.688h-2.042v212.688c0,7.882,6.406,14.288,14.288,14.288h937.413v-2.047
		h-937.41C-153.561,160.086-159.042,154.602-159.042,147.845z"/>
	<path fill="#ABABAB" d="M-254.903,147.869V-64.843h-2.042v212.706c-0.011,6.75-5.495,12.224-12.245,12.224h-165.42v2.047h165.42
		C-261.319,162.133-254.913,155.741-254.903,147.869z"/>
	<rect x="-434.611" y="256.024" fill="#ABABAB" width="1225.223" height="2.035"/>
	<path fill="#BCBCBC" d="M-252.864,147.877v-212.72h-2.039v212.712c-0.01,7.872-6.416,14.264-14.288,14.264h-165.42v2.042h165.42
		C-260.197,164.175-252.878,156.869-252.864,147.877z"/>
	<rect x="-434.611" y="253.981" fill="#BCBCBC" width="1225.223" height="2.043"/>
	<path fill="#BCBCBC" d="M-161.088,147.845V-64.843h-2.039v212.692c0,9.007,7.32,16.326,16.327,16.326h937.413v-2.042h-937.413
		C-154.682,162.133-161.088,155.727-161.088,147.845z"/>
	<rect x="-434.611" y="251.942" fill="#CECECE" width="1225.223" height="2.039"/>
	<path fill="#CECECE" d="M-250.821,147.873V-64.843h-2.042v212.72c-0.014,8.992-7.333,16.298-16.327,16.298h-165.42v2.036h165.42
		C-259.075,166.211-250.835,157.984-250.821,147.873z"/>
	<path fill="#CECECE" d="M-163.127,147.849V-64.843h-2.042v212.688c0,10.132,8.241,18.373,18.369,18.373h937.413v-2.039h-937.413
		C-155.807,164.175-163.127,156.855-163.127,147.849z"/>
	<path fill="#DFDFDF" d="M-248.778,147.88V-64.843h-2.043v212.716c-0.014,10.111-8.254,18.338-18.369,18.338h-165.42v2.046h165.42
		C-257.954,168.257-248.8,159.116-248.778,147.88z"/>
	<path fill="#DFDFDF" d="M-165.17,147.845V-64.843h-2.039v212.685c0,11.257,9.155,20.411,20.408,20.411h937.413v-2.035h-937.413
		C-156.929,166.218-165.17,157.977-165.17,147.845z"/>
	<polygon fill="#DFDFDF" points="-434.611,249.903 -434.611,251.939 -434.611,251.942 790.613,251.942 790.613,249.896 
		-434.611,249.896 	"/>
	<path fill="#F1F1F1" d="M-167.209,147.842V-64.843h-81.569V147.88c-0.021,11.236-9.176,20.377-20.412,20.377h-165.42v81.64H790.613
		v-81.644h-937.413C-158.054,168.253-167.209,159.099-167.209,147.842z"/>
</g>
</svg>
