<?xml version="1.0" encoding="utf-8"?>
<!-- Generator: Adobe Illustrator 24.0.0, SVG Export Plug-In . SVG Version: 6.00 Build 0)  -->
<svg version="1.1" id="图层_1" xmlns="http://www.w3.org/2000/svg" xmlns:xlink="http://www.w3.org/1999/xlink" x="0px" y="0px"
	 viewBox="0 0 200 200" style="enable-background:new 0 0 200 200;" xml:space="preserve">
<style type="text/css">
	.st0{fill:#D6D6D6;}
	.st1{fill:#39A2F7;}
</style>
<rect class="st0" width="200" height="200"/>
<path class="st1" d="M65.1,101.3c-2.2-3.2-5.8-3.2-8.1,0l-31,44.2c-2.2,3.2-0.9,5.8,3,5.8H171c3.9,0,5.2-2.6,2.9-5.7l-49.1-69.2
	c-2.3-3.2-5.9-3.2-8.1,0l-34.7,49L65.1,101.3L65.1,101.3z M45.5,52.8c0,7.8,6.1,14.1,13.6,14.1s13.6-6.3,13.6-14.1
	s-6.1-14.1-13.6-14.1S45.5,45,45.5,52.8L45.5,52.8z"/>
</svg>
