<?xml version="1.0" encoding="utf-8"?>
<!-- Generator: Adobe Illustrator 16.0.0, SVG Export Plug-In . SVG Version: 6.00 Build 0)  -->
<!DOCTYPE svg PUBLIC "-//W3C//DTD SVG 1.1//EN" "http://www.w3.org/Graphics/SVG/1.1/DTD/svg11.dtd">
<svg version="1.1" id="图层_1" xmlns="http://www.w3.org/2000/svg" xmlns:xlink="http://www.w3.org/1999/xlink" x="0px" y="0px"
	 width="167px" height="211px" viewBox="-61.76 -75.601 167 211" enable-background="new -61.76 -75.601 167 211"
	 xml:space="preserve">
<g>
	
		<linearGradient id="SVGID_1_" gradientUnits="userSpaceOnUse" x1="21.8064" y1="739.9014" x2="21.8064" y2="913.0605" gradientTransform="matrix(1 0 0 1 0.02 -787.042)">
		<stop  offset="0" style="stop-color:#FFFFFF"/>
		<stop  offset="1" style="stop-color:#969697"/>
	</linearGradient>
	<polyline fill="url(#SVGID_1_)" stroke="#000000" stroke-width="1.0206" stroke-miterlimit="10" points="42.134,-54.238 
		71.276,-54.238 97.755,-22.102 97.755,124.673 -54.102,124.673 -54.102,-22.102 -25.26,-54.238 2.619,-54.238 	"/>
	
		<rect x="-46.846" y="80.594" fill="#96D3DD" stroke="#FFFFFF" stroke-width="1.0206" stroke-miterlimit="10" width="137.337" height="25.896"/>
	
		<rect x="-46.846" y="18.474" fill="none" stroke="#000000" stroke-width="1.0206" stroke-miterlimit="10" width="137.337" height="12.943"/>
	
		<rect x="-46.846" y="42.333" fill="#F2F2F2" stroke="#000000" stroke-width="1.0206" stroke-miterlimit="10" width="137.337" height="32.959"/>
	<g>
		<path fill="#B3B3B3" stroke="#000000" stroke-width="1.4285" stroke-miterlimit="10" d="M21.828-12.751
			c0,1.615-8.1,7.214-17.515,8.241c-8.726,0.958-15.891-2.064-15.891-8.241c0-6.181,7.151-9.037,15.891-8.244
			C14.027-20.106,21.828-14.363,21.828-12.751z"/>
		<path fill="#B3B3B3" stroke="#000000" stroke-width="1.4285" stroke-miterlimit="10" d="M21.828-12.751
			c0,1.615,8.093,7.214,17.508,8.241c8.732,0.958,15.894-2.064,15.894-8.241c0-6.181-7.146-9.037-15.894-8.244
			C29.626-20.106,21.828-14.363,21.828-12.751z"/>
	</g>
	
		<line fill="none" stroke="#000000" stroke-width="1.4285" stroke-miterlimit="10" x1="21.828" y1="-12.751" x2="21.828" y2="-31.14"/>
	
		<rect x="9.587" y="-69.116" fill="#22B573" stroke="#000000" stroke-width="1.4285" stroke-miterlimit="10" width="24.487" height="37.976"/>
	
		<line fill="none" stroke="#000000" stroke-width="1.0206" stroke-miterlimit="10" x1="-46.846" y1="42.333" x2="-29.897" y2="75.292"/>
	
		<line fill="none" stroke="#000000" stroke-width="1.0206" stroke-miterlimit="10" x1="-29.648" y1="42.333" x2="-12.699" y2="75.292"/>
	
		<line fill="none" stroke="#000000" stroke-width="1.0206" stroke-miterlimit="10" x1="-12.446" y1="42.333" x2="4.503" y2="75.292"/>
	
		<line fill="none" stroke="#000000" stroke-width="1.0206" stroke-miterlimit="10" x1="4.756" y1="42.333" x2="21.701" y2="75.292"/>
	
		<line fill="none" stroke="#000000" stroke-width="1.0206" stroke-miterlimit="10" x1="21.951" y1="42.333" x2="38.904" y2="75.292"/>
	
		<line fill="none" stroke="#000000" stroke-width="1.0206" stroke-miterlimit="10" x1="39.154" y1="42.333" x2="56.099" y2="75.292"/>
	
		<line fill="none" stroke="#000000" stroke-width="1.0206" stroke-miterlimit="10" x1="56.352" y1="42.333" x2="73.304" y2="75.292"/>
	
		<line fill="none" stroke="#000000" stroke-width="1.0206" stroke-miterlimit="10" x1="73.557" y1="42.333" x2="90.502" y2="75.292"/>
</g>
</svg>
