<?xml version="1.0" encoding="utf-8"?>
<!-- Generator: Adobe Illustrator 16.0.0, SVG Export Plug-In . SVG Version: 6.00 Build 0)  -->
<!DOCTYPE svg PUBLIC "-//W3C//DTD SVG 1.1//EN" "http://www.w3.org/Graphics/SVG/1.1/DTD/svg11.dtd">
<svg version="1.1" id="图层_1" xmlns="http://www.w3.org/2000/svg" xmlns:xlink="http://www.w3.org/1999/xlink" x="0px" y="0px"
	 width="49px" height="178px" viewBox="-17.304 -62.888 49 178" enable-background="new -17.304 -62.888 49 178"
	 xml:space="preserve">
<g>
	<g>
		
			<rect x="14.865" y="66.53" fill="#00FF00" stroke="#000000" stroke-width="1.0206" stroke-miterlimit="10" width="12.48" height="15.662"/>
		
			<rect x="21.103" y="69.35" fill="#FFFFFF" stroke="#000000" stroke-width="1.0206" stroke-miterlimit="10" width="4.338" height="9.847"/>
		<rect x="12.619" y="70.414" width="2.246" height="8.782"/>
	</g>
	<g>
		<g>
			<g>
				<rect id="SVGID_1_" x="-8.984" y="45.119" fill="#5EFFFF" width="6.05" height="62.856"/>
			</g>
			<g>
				
					<rect id="SVGID_2_" x="-8.984" y="45.119" fill="none" stroke="#000000" stroke-width="1.0206" stroke-miterlimit="10" width="6.05" height="62.856"/>
			</g>
		</g>
	</g>
	<g>
		<g>
			<g>
				<rect id="SVGID_3_" x="6.569" y="45.119" fill="#CCCCCC" width="6.05" height="62.856"/>
			</g>
			<g>
				
					<rect id="SVGID_4_" x="6.569" y="45.119" fill="none" stroke="#000000" stroke-width="1.0206" stroke-miterlimit="10" width="6.05" height="62.856"/>
			</g>
		</g>
	</g>
	<g>
		
			<linearGradient id="SVGID_5_" gradientUnits="userSpaceOnUse" x1="-11.5198" y1="54.2209" x2="15.1956" y2="54.2209" gradientTransform="matrix(1 0 0 -1 -0.02 48.3179)">
			<stop  offset="0" style="stop-color:#FFFFFF"/>
			<stop  offset="0.1129" style="stop-color:#7481A6"/>
			<stop  offset="0.2957" style="stop-color:#99A0B3"/>
			<stop  offset="0.7419" style="stop-color:#A2ABC4"/>
			<stop  offset="0.9624" style="stop-color:#5B6B97"/>
			<stop  offset="1" style="stop-color:#D1D1D2"/>
		</linearGradient>
		<path fill="url(#SVGID_5_)" stroke="#000000" stroke-width="1.0206" stroke-miterlimit="10" d="M15.175,42.968
			c0,1.188-0.967,2.151-2.158,2.151H-9.382c-1.195,0-2.158-0.963-2.158-2.151v-97.741c0-1.188,0.963-2.151,2.158-2.151h22.398
			c1.191,0,2.158,0.963,2.158,2.151V42.968z"/>
		<g>
			<g>
				<path fill="none" stroke="#000000" stroke-width="0.72" stroke-miterlimit="2" d="M-0.677-49.106
					c0,0.594-0.479,1.076-1.076,1.076H-6.01c-0.598,0-1.076-0.482-1.076-1.076"/>
				<path fill="none" stroke="#000000" stroke-width="0.72" stroke-miterlimit="2" d="M10.721-49.106
					c0,0.594-0.479,1.076-1.076,1.076H5.388c-0.598,0-1.08-0.482-1.08-1.076"/>
			</g>
			<g>
				<path fill="none" stroke="#000000" stroke-width="0.72" stroke-miterlimit="2" d="M-0.677-40.528
					c0,0.598-0.479,1.076-1.076,1.076H-6.01c-0.598,0-1.076-0.479-1.076-1.076"/>
				<path fill="none" stroke="#000000" stroke-width="0.72" stroke-miterlimit="2" d="M10.721-40.528
					c0,0.598-0.479,1.076-1.076,1.076H5.388c-0.598,0-1.08-0.479-1.08-1.076"/>
			</g>
			<g>
				<path fill="none" stroke="#000000" stroke-width="0.72" stroke-miterlimit="2" d="M-0.677-31.943
					c0,0.59-0.479,1.076-1.076,1.076H-6.01c-0.598,0-1.076-0.485-1.076-1.076"/>
				<path fill="none" stroke="#000000" stroke-width="0.72" stroke-miterlimit="2" d="M10.721-31.943
					c0,0.59-0.479,1.076-1.076,1.076H5.388c-0.598,0-1.08-0.485-1.08-1.076"/>
			</g>
			<g>
				<path fill="none" stroke="#000000" stroke-width="0.72" stroke-miterlimit="2" d="M-0.677-23.358
					c0,0.591-0.479,1.076-1.076,1.076H-6.01c-0.598,0-1.076-0.485-1.076-1.076"/>
				<path fill="none" stroke="#000000" stroke-width="0.72" stroke-miterlimit="2" d="M10.721-23.358
					c0,0.591-0.479,1.076-1.076,1.076H5.388c-0.598,0-1.08-0.485-1.08-1.076"/>
			</g>
			<g>
				<path fill="none" stroke="#000000" stroke-width="0.72" stroke-miterlimit="2" d="M-0.677-14.78
					c0,0.591-0.479,1.076-1.076,1.076H-6.01c-0.598,0-1.076-0.485-1.076-1.076"/>
				<path fill="none" stroke="#000000" stroke-width="0.72" stroke-miterlimit="2" d="M10.721-14.78
					c0,0.591-0.479,1.076-1.076,1.076H5.388c-0.598,0-1.08-0.485-1.08-1.076"/>
			</g>
			<g>
				<path fill="none" stroke="#000000" stroke-width="0.72" stroke-miterlimit="2" d="M-0.677-6.201
					c0,0.598-0.479,1.076-1.076,1.076H-6.01c-0.598,0-1.076-0.478-1.076-1.076"/>
				<path fill="none" stroke="#000000" stroke-width="0.72" stroke-miterlimit="2" d="M10.721-6.201
					c0,0.598-0.479,1.076-1.076,1.076H5.388c-0.598,0-1.08-0.478-1.08-1.076"/>
			</g>
			<g>
				<path fill="none" stroke="#000000" stroke-width="0.72" stroke-miterlimit="2" d="M-0.677,2.384
					c0,0.594-0.479,1.076-1.076,1.076H-6.01c-0.598,0-1.076-0.482-1.076-1.076"/>
				<path fill="none" stroke="#000000" stroke-width="0.72" stroke-miterlimit="2" d="M10.721,2.384
					c0,0.594-0.479,1.076-1.076,1.076H5.388c-0.598,0-1.08-0.482-1.08-1.076"/>
			</g>
			<g>
				<path fill="none" stroke="#000000" stroke-width="0.72" stroke-miterlimit="2" d="M-0.677,10.966
					c0,0.594-0.479,1.079-1.076,1.079H-6.01c-0.598,0-1.076-0.485-1.076-1.079"/>
				<path fill="none" stroke="#000000" stroke-width="0.72" stroke-miterlimit="2" d="M10.721,10.966
					c0,0.594-0.479,1.079-1.076,1.079H5.388c-0.598,0-1.08-0.485-1.08-1.079"/>
			</g>
			<g>
				<path fill="none" stroke="#000000" stroke-width="0.72" stroke-miterlimit="2" d="M-0.677,19.547
					c0,0.591-0.479,1.076-1.076,1.076H-6.01c-0.598,0-1.076-0.485-1.076-1.076"/>
				<path fill="none" stroke="#000000" stroke-width="0.72" stroke-miterlimit="2" d="M10.721,19.547
					c0,0.591-0.479,1.076-1.076,1.076H5.388c-0.598,0-1.08-0.485-1.08-1.076"/>
			</g>
			<g>
				<path fill="none" stroke="#000000" stroke-width="0.72" stroke-miterlimit="2" d="M-0.677,28.132
					c0,0.591-0.479,1.076-1.076,1.076H-6.01c-0.598,0-1.076-0.485-1.076-1.076"/>
				<path fill="none" stroke="#000000" stroke-width="0.72" stroke-miterlimit="2" d="M10.721,28.132
					c0,0.591-0.479,1.076-1.076,1.076H5.388c-0.598,0-1.08-0.485-1.08-1.076"/>
			</g>
			<g>
				<path fill="none" stroke="#000000" stroke-width="0.72" stroke-miterlimit="2" d="M-0.677,36.71
					c0,0.595-0.479,1.076-1.076,1.076H-6.01c-0.598,0-1.076-0.481-1.076-1.076"/>
				<path fill="none" stroke="#000000" stroke-width="0.72" stroke-miterlimit="2" d="M10.721,36.71
					c0,0.595-0.479,1.076-1.076,1.076H5.388c-0.598,0-1.08-0.481-1.08-1.076"/>
			</g>
		</g>
	</g>
</g>
</svg>
