<?xml version="1.0" encoding="utf-8"?>
<!-- Generator: Adobe Illustrator 16.0.0, SVG Export Plug-In . SVG Version: 6.00 Build 0)  -->
<!DOCTYPE svg PUBLIC "-//W3C//DTD SVG 1.1//EN" "http://www.w3.org/Graphics/SVG/1.1/DTD/svg11.dtd">
<svg version="1.1" id="图层_1" xmlns="http://www.w3.org/2000/svg" xmlns:xlink="http://www.w3.org/1999/xlink" x="0px" y="0px"
	 width="43px" height="90px" viewBox="-9.469 -27.406 43 90" enable-background="new -9.469 -27.406 43 90" xml:space="preserve">
<g>
	<path fill="#2CA6E0" stroke="#000000" stroke-width="1.0206" stroke-miterlimit="10" d="M14.564,56.332
		c0,1.188-0.967,2.162-2.159,2.162h-0.756c-1.185,0-2.152-0.975-2.152-2.162V0.753c0-1.191,0.967-2.158,2.152-2.158h0.756
		c1.192,0,2.159,0.967,2.159,2.158V56.332z"/>
	
		<linearGradient id="SVGID_1_" gradientUnits="userSpaceOnUse" x1="-4.408" y1="48.1028" x2="28.512" y2="48.1028" gradientTransform="matrix(1 0 0 -1 -0.02 38.2827)">
		<stop  offset="0" style="stop-color:#528C97"/>
		<stop  offset="0.2634" style="stop-color:#FFFFFF"/>
		<stop  offset="0.4677" style="stop-color:#7BBFCC"/>
		<stop  offset="1" style="stop-color:#367A88"/>
	</linearGradient>
	<path fill="url(#SVGID_1_)" stroke="#000000" stroke-width="1.0206" stroke-miterlimit="10" d="M28.492,0.595
		c0,1.195-0.963,2.159-2.151,2.159H-2.276c-1.188,0-2.152-0.963-2.152-2.159v-20.833c0-1.185,0.963-2.155,2.152-2.155h28.617
		c1.188,0,2.151,0.97,2.151,2.155V0.595z"/>
</g>
</svg>
